<?xml version="1.0" encoding="UTF-8" standalone="no"?>
<!DOCTYPE svg PUBLIC "-//W3C//DTD SVG 1.1//EN" "http://www.w3.org/Graphics/SVG/1.1/DTD/svg11.dtd">
<svg width="100%" height="100%" viewBox="0 0 163 231" version="1.1" xmlns="http://www.w3.org/2000/svg" xmlns:xlink="http://www.w3.org/1999/xlink" xml:space="preserve" xmlns:serif="http://www.serif.com/" style="fill-rule:evenodd;clip-rule:evenodd;stroke-linejoin:round;stroke-miterlimit:1.41421;">
    <g transform="matrix(1,0,0,1,-45.5,-32.782)">
        <path d="M74.669,120.668L178.606,120.668L178.606,132.004L74.669,132.004L74.669,120.668ZM126.637,46.28C161.658,46.28 190.546,73.028 193.943,107.169L59.333,107.169C62.729,73.028 91.618,46.28 126.637,46.28M192.104,145.503L192.104,120.668L207.775,120.668L207.775,113.919C207.775,69.18 171.377,32.782 126.637,32.782C81.898,32.782 45.5,69.18 45.5,113.919L45.5,120.668L61.171,120.668L61.171,145.503L83.713,145.503L83.713,209.609C83.713,214.571 79.676,218.608 74.714,218.608C69.752,218.608 65.715,214.571 65.715,209.609L65.715,197.46L52.217,197.46L52.217,209.609C52.217,222.013 62.309,232.106 74.714,232.106C87.12,232.106 97.211,222.013 97.211,209.609L97.211,145.503L107.815,145.503L107.815,263.152L121.314,263.152L121.314,145.503L131.961,145.503L131.961,263.152L145.46,263.152L145.46,145.503L156.064,145.503L156.064,209.609C156.064,222.013 166.156,232.106 178.561,232.106C190.965,232.106 201.058,222.013 201.058,209.609L201.058,197.46L187.56,197.46L187.56,209.609C187.56,214.571 183.523,218.608 178.561,218.608C173.599,218.608 169.562,214.571 169.562,209.609L169.562,145.503L192.104,145.503Z" style="fill:rgb(0,180,173);fill-rule:nonzero;"/>
    </g>
</svg>
