<?xml version="1.0" encoding="UTF-8" standalone="no"?>
<!DOCTYPE svg PUBLIC "-//W3C//DTD SVG 1.1//EN" "http://www.w3.org/Graphics/SVG/1.1/DTD/svg11.dtd">
<svg width="100%" height="100%" viewBox="0 0 792 290" version="1.1" xmlns="http://www.w3.org/2000/svg" xmlns:xlink="http://www.w3.org/1999/xlink" xml:space="preserve" xmlns:serif="http://www.serif.com/" style="fill-rule:evenodd;clip-rule:evenodd;stroke-linejoin:round;stroke-miterlimit:1.41421;">
    <g id="Layer-1" serif:id="Layer 1">
        <g transform="matrix(1,0,0,1,306.788,181.73)">
            <path d="M0,-34.815C0,-50.18 -6.865,-57.862 -20.759,-57.862C-25.989,-57.862 -32.036,-57.535 -39.065,-56.881L-39.065,-15.201C-33.345,-14.383 -26.806,-13.893 -19.287,-13.893C-8.009,-13.893 0,-23.046 0,-34.815M22.066,-35.469C22.066,-23.374 18.47,-13.566 11.441,-6.047C4.413,1.308 -4.74,5.067 -15.691,5.067C-25.008,5.067 -32.69,4.741 -39.065,4.086L-39.065,41.844L-61.785,41.844L-61.785,-72.899C-42.334,-75.351 -27.46,-76.659 -17.162,-76.659C7.519,-76.659 21.412,-60.804 22.066,-35.469" style="fill:rgb(65,64,66);fill-rule:nonzero;"/>
        </g>
        <g transform="matrix(1,0,0,1,397.18,163.588)">
            <path d="M0,-36.287C-11.278,-36.287 -20.595,-35.96 -27.787,-35.307L-27.787,22.229L-50.507,22.229L-50.507,-53.45C-31.873,-56.882 -15.037,-58.516 0,-58.516L0,-36.287Z" style="fill:rgb(65,64,66);fill-rule:nonzero;"/>
        </g>
        <g transform="matrix(1,0,0,1,448.505,168.49)">
            <path d="M0,-44.132C-12.913,-44.132 -21.739,-35.469 -21.739,-22.393C-21.739,-9.153 -12.913,0 0,0C12.913,0 21.575,-9.153 21.575,-22.393C21.575,-35.469 12.913,-44.132 0,-44.132M31.873,-52.795C39.882,-45.112 43.969,-34.979 43.969,-22.393C43.969,-9.644 39.882,0.654 31.873,8.5C23.864,16.346 13.239,20.268 0,20.268C-13.239,20.268 -23.864,16.346 -32.037,8.5C-40.209,0.654 -44.296,-9.644 -44.296,-22.393C-44.296,-34.979 -40.209,-45.112 -32.2,-52.795C-24.027,-60.477 -13.239,-64.4 0,-64.4C13.239,-64.4 23.864,-60.477 31.873,-52.795" style="fill:rgb(65,64,66);fill-rule:nonzero;"/>
        </g>
        <g transform="matrix(1,0,0,1,569.135,82.1873)">
            <path d="M0,103.466C-7.683,105.264 -15.038,106.081 -22.394,106.081C-41.518,106.081 -52.469,94.639 -52.469,74.371L-52.469,45.604L-68.65,45.604L-68.65,25.336L-52.469,25.336L-52.469,-2.615L-29.749,-2.615L-29.749,25.336L-5.067,25.336L-5.067,45.604L-29.749,45.604L-29.749,72.083C-29.749,81.237 -25.662,85.813 -17.49,85.813C-13.24,85.813 -8.173,85.486 -2.125,84.668L0,103.466Z" style="fill:rgb(65,64,66);fill-rule:nonzero;"/>
        </g>
        <g transform="matrix(1,0,0,1,622.257,168.49)">
            <path d="M0,-44.132C-12.913,-44.132 -21.739,-35.469 -21.739,-22.393C-21.739,-9.153 -12.913,0 0,0C12.913,0 21.575,-9.153 21.575,-22.393C21.575,-35.469 12.913,-44.132 0,-44.132M31.873,-52.795C39.882,-45.112 43.969,-34.979 43.969,-22.393C43.969,-9.644 39.882,0.654 31.873,8.5C23.864,16.346 13.239,20.268 0,20.268C-13.239,20.268 -23.864,16.346 -32.037,8.5C-40.209,0.654 -44.296,-9.644 -44.296,-22.393C-44.296,-34.979 -40.209,-45.112 -32.2,-52.795C-24.027,-60.477 -13.239,-64.4 0,-64.4C13.239,-64.4 23.864,-60.477 31.873,-52.795" style="fill:rgb(65,64,66);fill-rule:nonzero;"/>
        </g>
        <g transform="matrix(1,0,0,1,683.063,130.407)">
            <path d="M0,32.853C11.932,37.43 22.557,39.718 31.71,39.718C40.699,39.718 45.113,37.757 45.113,33.67C45.113,30.075 41.681,28.277 36.45,27.132C33.671,26.315 32.2,26.152 28.44,25.498L24.191,24.681C5.721,21.248 -2.778,14.383 -2.778,1.144C-2.778,-15.202 10.461,-25.009 31.547,-25.009C43.151,-25.009 54.103,-23.047 64.4,-19.125L59.333,-1.962C46.747,-5.558 37.268,-7.356 30.729,-7.356C23.537,-7.356 19.451,-4.741 19.451,-0.654C19.451,2.941 22.066,4.249 26.643,5.72C29.422,6.374 30.729,6.538 34.652,7.355L39.229,8.172C58.353,12.095 66.361,17.652 66.361,31.545C66.361,49.035 52.632,57.862 30.893,57.862C18.797,57.862 7.028,55.573 -4.576,50.997L0,32.853Z" style="fill:rgb(65,64,66);fill-rule:nonzero;"/>
        </g>
        <g transform="matrix(1,0,0,1,0,-5.934)">
            <path d="M74.669,120.668L178.606,120.668L178.606,132.004L74.669,132.004L74.669,120.668ZM126.637,46.28C161.658,46.28 190.546,73.028 193.943,107.169L59.333,107.169C62.729,73.028 91.618,46.28 126.637,46.28M192.104,145.503L192.104,120.668L207.775,120.668L207.775,113.919C207.775,69.18 171.377,32.782 126.637,32.782C81.898,32.782 45.5,69.18 45.5,113.919L45.5,120.668L61.171,120.668L61.171,145.503L83.713,145.503L83.713,209.609C83.713,214.571 79.676,218.608 74.714,218.608C69.752,218.608 65.715,214.571 65.715,209.609L65.715,197.46L52.217,197.46L52.217,209.609C52.217,222.013 62.309,232.106 74.714,232.106C87.12,232.106 97.211,222.013 97.211,209.609L97.211,145.503L107.815,145.503L107.815,263.152L121.314,263.152L121.314,145.503L131.961,145.503L131.961,263.152L145.46,263.152L145.46,145.503L156.064,145.503L156.064,209.609C156.064,222.013 166.156,232.106 178.561,232.106C190.965,232.106 201.058,222.013 201.058,209.609L201.058,197.46L187.56,197.46L187.56,209.609C187.56,214.571 183.523,218.608 178.561,218.608C173.599,218.608 169.562,214.571 169.562,209.609L169.562,145.503L192.104,145.503Z" style="fill:rgb(0,180,173);fill-rule:nonzero;"/>
        </g>
    </g>
</svg>
