<?xml version="1.0" standalone="no"?>
<!DOCTYPE svg PUBLIC "-//W3C//DTD SVG 20010904//EN"
 "http://www.w3.org/TR/2001/REC-SVG-20010904/DTD/svg10.dtd">
<svg version="1.0" xmlns="http://www.w3.org/2000/svg"
 width="480.000000pt" height="480.000000pt" viewBox="0 0 480.000000 480.000000"
 preserveAspectRatio="xMidYMid meet">
<metadata>
Created by potrace 1.11, written by Peter Selinger 2001-2013
</metadata>
<g transform="translate(0.000000,480.000000) scale(0.100000,-0.100000)"
fill="#000000" stroke="none">
<path d="M2280 4793 c-14 -2 -50 -8 -80 -13 -30 -5 -69 -12 -86 -15 -17 -2
-62 -14 -100 -26 -416 -128 -768 -436 -964 -844 -76 -158 -138 -353 -156 -487
-3 -24 -9 -59 -13 -78 -4 -19 -8 -108 -10 -197 l-3 -163 151 0 151 0 0 -260 0
-260 217 -2 218 -3 0 -660 c0 -363 -3 -680 -7 -704 -16 -88 -86 -151 -167
-151 -51 0 -90 19 -126 62 -42 49 -46 72 -47 230 l0 148 -129 0 c-96 0 -129
-3 -130 -12 -5 -59 3 -316 11 -353 46 -205 224 -357 417 -356 78 0 107 7 178
40 131 61 232 203 252 355 3 28 7 356 7 729 l0 677 103 0 102 0 0 -1203 c0
-661 0 -1212 0 -1224 1 -23 3 -23 130 -23 l129 0 1 1208 c0 664 0 1215 1 1225
0 15 12 17 100 17 88 0 100 -2 101 -17 0 -10 0 -561 0 -1225 l0 -1208 129 0
130 0 0 38 c1 20 1 571 1 1224 l0 1188 103 0 102 0 0 -692 c1 -381 4 -710 7
-730 47 -270 314 -442 554 -358 143 50 259 182 293 335 8 36 14 237 11 343 -1
22 -3 22 -129 22 l-128 0 -2 -148 c-1 -162 -10 -198 -59 -244 -70 -67 -182
-62 -241 11 -46 56 -45 46 -47 761 0 371 1 681 3 688 3 9 56 12 218 12 l214 0
0 260 0 260 150 0 151 0 -2 143 c-3 352 -91 658 -272 952 -36 59 -154 208
-209 265 -241 249 -524 396 -878 457 -33 6 -318 11 -350 6z m386 -297 c251
-53 466 -173 654 -364 205 -208 339 -473 388 -767 l19 -110 -1286 -3 c-707 -1
-1291 0 -1297 2 -9 3 -6 35 7 113 79 447 348 822 730 1017 99 51 202 89 272
102 17 2 33 7 37 9 4 3 38 7 76 11 38 4 71 8 73 10 10 10 262 -6 327 -20z
m764 -1645 l0 -119 -1000 0 -1000 0 0 119 0 119 1000 0 1000 0 0 -119z"/>
</g>
</svg>
