<?xml version="1.0" encoding="UTF-8" standalone="no"?>
<!DOCTYPE svg PUBLIC "-//W3C//DTD SVG 1.1//EN" "http://www.w3.org/Graphics/SVG/1.1/DTD/svg11.dtd">
<svg width="100%" height="100%" viewBox="0 0 167 142" version="1.1" xmlns="http://www.w3.org/2000/svg" xmlns:xlink="http://www.w3.org/1999/xlink" xml:space="preserve" xmlns:serif="http://www.serif.com/" style="fill-rule:evenodd;clip-rule:evenodd;stroke-linejoin:round;stroke-miterlimit:1.41421;">
    <g transform="matrix(1,0,0,1,0,-2.07)">
        <g id="Shape">
            <path d="M94.268,67.616L110.011,67.616L110.011,53.304L94.268,53.304L94.268,67.616ZM75.663,67.616L91.405,67.616L91.405,53.304L75.663,53.304L75.663,67.616ZM57.058,67.616L72.801,67.616L72.801,53.304L57.058,53.304L57.058,67.616ZM38.453,67.616L54.196,67.616L54.196,53.304L38.453,53.304L38.453,67.616ZM19.848,67.616L35.591,67.616L35.591,53.304L19.848,53.304L19.848,67.616ZM38.453,50.443L54.196,50.443L54.196,36.132L38.453,36.132L38.453,50.443ZM57.058,50.443L72.801,50.443L72.801,36.132L57.058,36.132L57.058,50.443ZM75.663,50.443L91.405,50.443L91.405,36.132L75.663,36.132L75.663,50.443ZM75.663,33.269L91.405,33.269L91.405,18.957L75.663,18.957L75.663,33.269ZM157.321,59.272C153.883,56.972 145.983,56.129 139.904,57.275C139.121,51.549 135.93,46.584 130.125,42.096L126.788,39.871L124.561,43.211C121.71,47.51 120.286,53.467 120.753,59.178C120.963,61.188 121.623,64.781 123.69,67.942C121.624,69.052 117.54,70.582 112.157,70.479L8.622,70.479L8.419,71.671C7.446,77.411 7.467,95.324 19.097,109.091C27.937,119.555 41.191,124.863 58.489,124.863C95.989,124.863 123.733,107.6 136.726,76.222C141.835,76.324 152.835,76.252 158.486,65.456C158.633,65.208 158.972,64.56 159.959,62.514L160.5,61.392L157.321,59.272Z" style="fill:rgb(6,109,165);"/>
        </g>
    </g>
</svg>
